# xmcd CD database file
#
# Track frame offsets:
#	150
#	23900
#	37875
#	53310
#	68792
#	91422
#	103210
#	114827
#	126510
#	145133
#	165181
#	177673
#	194346
#	210106
#	223861
#	246661
#	268243
#	293076
#
# Disc length: 4278 seconds
#
# Revision: 0
# Processed by: cddbd v1.5.2PL0 Copyright (c) Steve Scherf et al.
# Submitted via: CDex 1.84
#
DISCID=0910b412
DTITLE=Thelonious Monk - The Complete Albums Collection (1954-1955) [CD3]
DYEAR=2015
DGENRE=Jazz
TTITLE0=Round About Midnight
TTITLE1=Evidence
TTITLE2=Smoke Gets In Your Eyes
TTITLE3=Well You Needn't
TTITLE4=Reflections
TTITLE5=Wee See
TTITLE6=Eronel
TTITLE7=Off Minor
TTITLE8=Speculation
TTITLE9=In A Meditating Mood
TTITLE10=Social Call
TTITLE11=Smoke Signal
TTITLE12=You'll Always Be The One I Love
TTITLE13=Kerry Dance
TTITLE14=Shuffle Boil
TTITLE15=Brake's Sake
TTITLE16=Gallop's Gallop
TTITLE17=Nica's Tempo
EXTD=YEAR: 2015
EXTT0=
EXTT1=
EXTT2=
EXTT3=
EXTT4=
EXTT5=
EXTT6=
EXTT7=
EXTT8=
EXTT9=
EXTT10=
EXTT11=
EXTT12=
EXTT13=
EXTT14=
EXTT15=
EXTT16=
EXTT17=
PLAYORDER=
